# xmcd
#
# Track frame offsets: 
#        182
#        15207
#        32850
#        49872
#        73895
#        95770
#        110762
#        123735
#        147590
#        171215
#        192500
#        208317
#
# Disc length: 3061 seconds
#
# Revision: 3
# Processed by: cddbd v1.5.1PL0 Copyright (c) Steve Scherf et al.
# Submitted via: ExactAudioCopy v0.95a5
#
DISCID=c00bf30c
DTITLE=Jerry Jeff Walker - ¡Viva Luckenbach!
DYEAR=1994
DGENRE=Country
TTITLE0=Gettin' By
TTITLE1=Viva Luckenbach
TTITLE2=What I Like About Texas
TTITLE3=Learning To P'Like And Luckenbach Women's Lib
TTITLE4=Some Phone Numbers
TTITLE5=I'll Be Here In The Morning
TTITLE6=I Makes Money (Money Don't Make Me)
TTITLE7=Keep Texas Beautiful
TTITLE8=The Gift
TTITLE9=Little Man
TTITLE10=Gonzo Compadres
TTITLE11=Movin' On
EXTD=
EXTT0=
EXTT1=
EXTT2=
EXTT3=
EXTT4=
EXTT5=
EXTT6=
EXTT7=
EXTT8=
EXTT9=
EXTT10=
EXTT11=
PLAYORDER=
